<?xml version="1.0" encoding="UTF-8" standalone="no"?>
<!-- Created with Inkscape (http://www.inkscape.org/) -->

<svg
   xmlns:dc="http://purl.org/dc/elements/1.1/"
   xmlns:cc="http://creativecommons.org/ns#"
   xmlns:rdf="http://www.w3.org/1999/02/22-rdf-syntax-ns#"
   xmlns:svg="http://www.w3.org/2000/svg"
   xmlns="http://www.w3.org/2000/svg"
   xmlns:sodipodi="http://sodipodi.sourceforge.net/DTD/sodipodi-0.dtd"
   xmlns:inkscape="http://www.inkscape.org/namespaces/inkscape"
   width="210mm"
   height="297mm"
   viewBox="0 0 744.09448819 1052.3622047"
   id="svg2"
   version="1.1"
   inkscape:version="0.91 r13725"
   sodipodi:docname="HCSR04 mount-v2.svg">
  <defs
     id="defs4" />
  <sodipodi:namedview
     id="base"
     pagecolor="#ffffff"
     bordercolor="#666666"
     borderopacity="1.0"
     inkscape:pageopacity="0.0"
     inkscape:pageshadow="2"
     inkscape:zoom="2.8284271"
     inkscape:cx="118.24824"
     inkscape:cy="84.423439"
     inkscape:document-units="mm"
     inkscape:current-layer="layer1"
     showgrid="false"
     showguides="false"
     inkscape:guide-bbox="true"
     inkscape:window-width="1688"
     inkscape:window-height="849"
     inkscape:window-x="-8"
     inkscape:window-y="-8"
     inkscape:window-maximized="1">
    <sodipodi:guide
       position="57.621651,836.34442"
       orientation="0,1"
       id="guide4148" />
  </sodipodi:namedview>
  <metadata
     id="metadata7">
    <rdf:RDF>
      <cc:Work
         rdf:about="">
        <dc:format>image/svg+xml</dc:format>
        <dc:type
           rdf:resource="http://purl.org/dc/dcmitype/StillImage" />
        <dc:title />
      </cc:Work>
    </rdf:RDF>
  </metadata>
  <g
     inkscape:label="Layer 1"
     inkscape:groupmode="layer"
     id="layer1">
    <g
       id="g4150">
      <g
         id="g4142" />
    </g>
    <g
       id="g5822">
      <path
         id="rect4156"
         d="M 49.589844 851.94727 C 47.626854 851.94727 46.046875 853.52724 46.046875 855.49023 L 46.046875 866.08398 C 46.046875 866.44085 46.113678 866.77914 46.210938 867.10352 L 46.126953 867.10352 L 46.126953 960.08789 L 18.574219 960.08789 C 16.611229 960.08789 15.03125 961.66787 15.03125 963.63086 L 15.03125 1038.0293 C 15.03125 1039.9923 16.611229 1041.5723 18.574219 1041.5723 L 82.302734 1041.5723 L 82.302734 1028.0703 L 117.47461 1028.0703 L 117.47461 1041.5723 L 181.20117 1041.5723 C 183.16417 1041.5723 184.74414 1039.9923 184.74414 1038.0293 L 184.74414 963.63086 C 184.74414 961.66787 183.16417 960.08789 181.20117 960.08789 L 153.64844 960.08789 L 153.64844 867.10352 L 153.5625 867.10352 C 153.6595 866.77914 153.72852 866.44085 153.72852 866.08398 L 153.72852 855.49023 C 153.72852 853.52724 152.14649 851.94727 150.18359 851.94727 L 144.9043 851.94727 C 142.9413 851.94727 141.36133 853.52724 141.36133 855.49023 L 141.36133 866.08398 C 141.36133 866.44094 141.43 866.77907 141.52734 867.10352 L 58.248047 867.10352 C 58.345347 866.77914 58.412109 866.44085 58.412109 866.08398 L 58.412109 855.49023 C 58.412109 853.52724 56.832131 851.94727 54.869141 851.94727 L 49.589844 851.94727 z "
         style="opacity:1;fill:none;fill-opacity:1;stroke:#000000;stroke-width:0.36553261;stroke-miterlimit:4;stroke-dasharray:none;stroke-opacity:1" />
      <path
         style="opacity:1;fill:none;fill-opacity:1;stroke:#000000;stroke-width:0.35433072;stroke-miterlimit:4;stroke-dasharray:none;stroke-opacity:1"
         d="m 67.998696,874.86331 63.779524,0 c 1.96299,0 3.54331,1.58032 3.54331,3.54331 l 0,4.92321 c 0,1.963 -1.58032,3.54331 -3.54331,3.54331 l -63.779524,0 c -1.962994,0 -3.54331,-1.58031 -3.54331,-3.54331 l 0,-4.92321 c 0,-1.96299 1.580316,-3.54331 3.54331,-3.54331 z"
         id="rect4226"
         inkscape:connector-curvature="0" />
      <path
         style="opacity:1;fill:none;fill-opacity:1;stroke:#000000;stroke-width:0.35433072;stroke-miterlimit:4;stroke-dasharray:none;stroke-opacity:1"
         d="M 116.11454,921.75277 A 16.226053,16.226053 0 0 1 99.888488,937.97883 16.226053,16.226053 0 0 1 83.662434,921.75277 16.226053,16.226053 0 0 1 99.888488,905.52672 16.226053,16.226053 0 0 1 116.11454,921.75277 Z"
         id="path4230"
         inkscape:connector-curvature="0" />
    </g>
    <g
       id="g5818"
       transform="translate(0.175935,0)">
      <path
         inkscape:connector-curvature="0"
         id="path3336"
         d="M 86.518654,1003.4879 A 28.826527,28.826527 0 0 1 57.692127,1032.3145 28.826527,28.826527 0 0 1 28.8656,1003.4879 28.826527,28.826527 0 0 1 57.692127,974.66136 28.826527,28.826527 0 0 1 86.518654,1003.4879 Z"
         style="opacity:1;fill:none;fill-opacity:1;stroke:#000000;stroke-width:0.45718476;stroke-miterlimit:4;stroke-dasharray:none;stroke-opacity:1" />
      <path
         inkscape:connector-curvature="0"
         id="circle5159"
         d="m 170.55792,1003.4879 a 28.826527,28.826527 0 0 1 -28.82653,28.8266 28.826527,28.826527 0 0 1 -28.82653,-28.8266 28.826527,28.826527 0 0 1 28.82653,-28.82654 28.826527,28.826527 0 0 1 28.82653,28.82654 z"
         style="opacity:1;fill:none;fill-opacity:1;stroke:#000000;stroke-width:0.45718476;stroke-miterlimit:4;stroke-dasharray:none;stroke-opacity:1" />
    </g>
  </g>
</svg>
