<?xml version="1.0" encoding="UTF-8" standalone="no"?>
<!-- Created with Inkscape (http://www.inkscape.org/) -->

<svg
   xmlns:dc="http://purl.org/dc/elements/1.1/"
   xmlns:cc="http://creativecommons.org/ns#"
   xmlns:rdf="http://www.w3.org/1999/02/22-rdf-syntax-ns#"
   xmlns:svg="http://www.w3.org/2000/svg"
   xmlns="http://www.w3.org/2000/svg"
   xmlns:sodipodi="http://sodipodi.sourceforge.net/DTD/sodipodi-0.dtd"
   xmlns:inkscape="http://www.inkscape.org/namespaces/inkscape"
   width="297mm"
   height="210mm"
   viewBox="0 0 1052.3622 744.09448"
   id="svg2"
   version="1.1"
   inkscape:version="0.91 r13725"
   sodipodi:docname="HCSR04 mountx15.svg">
  <defs
     id="defs4" />
  <sodipodi:namedview
     id="base"
     pagecolor="#ffffff"
     bordercolor="#666666"
     borderopacity="1.0"
     inkscape:pageopacity="0.0"
     inkscape:pageshadow="2"
     inkscape:zoom="0.9783649"
     inkscape:cx="514.91119"
     inkscape:cy="491.32569"
     inkscape:document-units="mm"
     inkscape:current-layer="layer1"
     showgrid="false"
     showguides="true"
     inkscape:guide-bbox="true"
     inkscape:window-width="1920"
     inkscape:window-height="1056"
     inkscape:window-x="0"
     inkscape:window-y="24"
     inkscape:window-maximized="1"
     units="mm">
    <sodipodi:guide
       position="57.621651,836.34442"
       orientation="0,1"
       id="guide4148" />
  </sodipodi:namedview>
  <metadata
     id="metadata7">
    <rdf:RDF>
      <cc:Work
         rdf:about="">
        <dc:format>image/svg+xml</dc:format>
        <dc:type
           rdf:resource="http://purl.org/dc/dcmitype/StillImage" />
        <dc:title></dc:title>
      </cc:Work>
    </rdf:RDF>
  </metadata>
  <g
     inkscape:label="Layer 1"
     inkscape:groupmode="layer"
     id="layer1"
     transform="translate(0,-308.26772)">
    <g
       id="g4150">
      <g
         id="g4142" />
    </g>
    <g
       id="g3689"
       transform="matrix(0,1,-1,0,1091.5382,365.76583)">
      <g
         transform="translate(0,-12)"
         id="g4200">
        <circle
           style="opacity:1;fill:none;fill-opacity:1;stroke:#000000;stroke-width:0.45997247;stroke-miterlimit:4;stroke-dasharray:none;stroke-opacity:1"
           id="path3336"
           cx="41.75013"
           cy="245.21036"
           r="29.002296" />
        <circle
           r="29.002296"
           cy="245.21036"
           cx="135.29344"
           id="circle4140"
           style="opacity:1;fill:none;fill-opacity:1;stroke:#000000;stroke-width:0.45997247;stroke-miterlimit:4;stroke-dasharray:none;stroke-opacity:1" />
        <rect
           ry="3.5433071"
           rx="3.5433071"
           y="212.39999"
           x="68.147766"
           height="17.716536"
           width="38.976379"
           id="rect4146"
           style="opacity:1;fill:none;fill-opacity:1;stroke:#000000;stroke-width:0.35433072;stroke-miterlimit:4;stroke-dasharray:none;stroke-opacity:1" />
      </g>
      <path
         id="rect4156"
         d="m 38.224609,80.679688 c -1.962992,0 -3.542968,1.579976 -3.542968,3.542968 l 0,10.593754 c 0,0.35687 0.0668,0.69515 0.164062,1.01953 l -0.08398,0 0,92.98437 -27.5527346,0 c -1.9629937,0 -3.5429688,1.57998 -3.5429688,3.54297 l 0,74.39844 c 0,1.96299 1.5799751,3.54297 3.5429688,3.54297 l 162.6269516,0 c 1.96299,0 3.54297,-1.57998 3.54297,-3.54297 l 0,-74.39844 c 0,-1.96299 -1.57998,-3.54297 -3.54297,-3.54297 l -27.55274,0 0,-92.98437 -0.0859,0 c 0.0973,-0.32438 0.16601,-0.66266 0.16601,-1.01953 l 0,-10.593754 c 0,-1.962992 -1.58193,-3.542968 -3.54492,-3.542968 l -5.2793,0 c -1.96299,0 -3.54297,1.579976 -3.54297,3.542968 l 0,10.593754 c 0,0.35696 0.0687,0.69508 0.16602,1.01953 l -83.279294,0 c 0.09727,-0.32438 0.164063,-0.66266 0.164063,-1.01953 l 0,-10.593754 c 0,-1.962992 -1.579977,-3.542968 -3.542969,-3.542968 l -5.279297,0 z"
         style="opacity:1;fill:none;fill-opacity:1;stroke:#000000;stroke-width:0.36553261;stroke-miterlimit:4;stroke-dasharray:none;stroke-opacity:1"
         inkscape:connector-curvature="0" />
      <rect
         ry="3.5433099"
         rx="3.5433099"
         y="103.59515"
         x="53.08939"
         height="12.009834"
         width="70.866142"
         id="rect4226"
         style="opacity:1;fill:none;fill-opacity:1;stroke:#000000;stroke-width:0.35433072;stroke-miterlimit:4;stroke-dasharray:none;stroke-opacity:1" />
      <circle
         r="16.226053"
         cy="150.4846"
         cx="88.522461"
         id="path4230"
         style="opacity:1;fill:none;fill-opacity:1;stroke:#000000;stroke-width:0.35433072;stroke-miterlimit:4;stroke-dasharray:none;stroke-opacity:1" />
      <g
         transform="translate(284,-12)"
         id="g3362">
        <circle
           r="29.002296"
           cy="245.21036"
           cx="41.75013"
           id="circle3364"
           style="opacity:1;fill:none;fill-opacity:1;stroke:#000000;stroke-width:0.45997247;stroke-miterlimit:4;stroke-dasharray:none;stroke-opacity:1" />
        <circle
           style="opacity:1;fill:none;fill-opacity:1;stroke:#000000;stroke-width:0.45997247;stroke-miterlimit:4;stroke-dasharray:none;stroke-opacity:1"
           id="circle3366"
           cx="135.29344"
           cy="245.21036"
           r="29.002296" />
        <rect
           style="opacity:1;fill:none;fill-opacity:1;stroke:#000000;stroke-width:0.35433072;stroke-miterlimit:4;stroke-dasharray:none;stroke-opacity:1"
           id="rect3368"
           width="38.976379"
           height="17.716536"
           x="68.147766"
           y="212.39999"
           rx="3.5433071"
           ry="3.5433071" />
      </g>
      <path
         style="opacity:1;fill:none;fill-opacity:1;stroke:#000000;stroke-width:0.36553261;stroke-miterlimit:4;stroke-dasharray:none;stroke-opacity:1"
         d="m 322.22461,80.679688 c -1.96299,0 -3.54297,1.579976 -3.54297,3.542968 l 0,10.593754 c 0,0.35687 0.0668,0.69515 0.16406,1.01953 l -0.084,0 0,92.98437 -27.55273,0 c -1.963,0 -3.54297,1.57998 -3.54297,3.54297 l 0,74.39844 c 0,1.96299 1.57997,3.54297 3.54297,3.54297 l 162.62695,0 c 1.96299,0 3.54297,-1.57998 3.54297,-3.54297 l 0,-74.39844 c 0,-1.96299 -1.57998,-3.54297 -3.54297,-3.54297 l -27.55274,0 0,-92.98437 -0.0859,0 c 0.0973,-0.32438 0.16601,-0.66266 0.16601,-1.01953 l 0,-10.593754 c 0,-1.962992 -1.58193,-3.542968 -3.54492,-3.542968 l -5.2793,0 c -1.96299,0 -3.54297,1.579976 -3.54297,3.542968 l 0,10.593754 c 0,0.35696 0.0687,0.69508 0.16602,1.01953 l -83.27929,0 c 0.0973,-0.32438 0.16406,-0.66266 0.16406,-1.01953 l 0,-10.593754 c 0,-1.962992 -1.57998,-3.542968 -3.54297,-3.542968 l -5.2793,0 z"
         id="path3370"
         inkscape:connector-curvature="0" />
      <rect
         style="opacity:1;fill:none;fill-opacity:1;stroke:#000000;stroke-width:0.35433072;stroke-miterlimit:4;stroke-dasharray:none;stroke-opacity:1"
         id="rect3372"
         width="70.866142"
         height="12.009834"
         x="337.08939"
         y="103.59515"
         rx="3.5433099"
         ry="3.5433099" />
      <circle
         style="opacity:1;fill:none;fill-opacity:1;stroke:#000000;stroke-width:0.35433072;stroke-miterlimit:4;stroke-dasharray:none;stroke-opacity:1"
         id="circle3374"
         cx="372.52246"
         cy="150.4846"
         r="16.226053" />
      <g
         transform="matrix(1,0,0,-1,142,362.98438)"
         id="g3378">
        <circle
           style="opacity:1;fill:none;fill-opacity:1;stroke:#000000;stroke-width:0.45997247;stroke-miterlimit:4;stroke-dasharray:none;stroke-opacity:1"
           id="circle3380"
           cx="41.75013"
           cy="245.21036"
           r="29.002296" />
        <circle
           r="29.002296"
           cy="245.21036"
           cx="135.29344"
           id="circle3382"
           style="opacity:1;fill:none;fill-opacity:1;stroke:#000000;stroke-width:0.45997247;stroke-miterlimit:4;stroke-dasharray:none;stroke-opacity:1" />
        <rect
           ry="3.5433071"
           rx="3.5433071"
           y="212.39999"
           x="68.147766"
           height="17.716536"
           width="38.976379"
           id="rect3384"
           style="opacity:1;fill:none;fill-opacity:1;stroke:#000000;stroke-width:0.35433072;stroke-miterlimit:4;stroke-dasharray:none;stroke-opacity:1" />
      </g>
      <path
         inkscape:connector-curvature="0"
         id="path3386"
         d="m 180.22461,270.30469 c -1.96299,0 -3.54297,-1.57997 -3.54297,-3.54297 l 0,-10.59375 c 0,-0.35687 0.0668,-0.69515 0.16406,-1.01953 l -0.084,0 0,-92.98437 -27.55273,0 c -1.963,0 -3.54297,-1.57998 -3.54297,-3.54297 l 0,-74.39844 c 0,-1.96299 1.57997,-3.54297 3.54297,-3.54297 l 162.62695,0 c 1.96299,0 3.54297,1.57998 3.54297,3.54297 l 0,74.39844 c 0,1.96299 -1.57998,3.54297 -3.54297,3.54297 l -27.55274,0 0,92.98437 -0.0859,0 c 0.0973,0.32438 0.16601,0.66266 0.16601,1.01953 l 0,10.59375 c 0,1.963 -1.58193,3.54297 -3.54492,3.54297 l -5.2793,0 c -1.96299,0 -3.54297,-1.57997 -3.54297,-3.54297 l 0,-10.59375 c 0,-0.35696 0.0687,-0.69508 0.16602,-1.01953 l -83.27929,0 c 0.0973,0.32438 0.16406,0.66266 0.16406,1.01953 l 0,10.59375 c 0,1.963 -1.57998,3.54297 -3.54297,3.54297 l -5.2793,0 z"
         style="opacity:1;fill:none;fill-opacity:1;stroke:#000000;stroke-width:0.36553261;stroke-miterlimit:4;stroke-dasharray:none;stroke-opacity:1" />
      <rect
         transform="scale(1,-1)"
         ry="3.5433099"
         rx="3.5433099"
         y="-247.38922"
         x="195.08939"
         height="12.009834"
         width="70.866142"
         id="rect3388"
         style="opacity:1;fill:none;fill-opacity:1;stroke:#000000;stroke-width:0.35433072;stroke-miterlimit:4;stroke-dasharray:none;stroke-opacity:1" />
      <circle
         transform="scale(1,-1)"
         r="16.226053"
         cy="-200.49977"
         cx="230.52246"
         id="circle3390"
         style="opacity:1;fill:none;fill-opacity:1;stroke:#000000;stroke-width:0.35433072;stroke-miterlimit:4;stroke-dasharray:none;stroke-opacity:1" />
      <g
         transform="translate(0,180)"
         id="g3394">
        <circle
           r="29.002296"
           cy="245.21036"
           cx="41.75013"
           id="circle3396"
           style="opacity:1;fill:none;fill-opacity:1;stroke:#000000;stroke-width:0.45997247;stroke-miterlimit:4;stroke-dasharray:none;stroke-opacity:1" />
        <circle
           style="opacity:1;fill:none;fill-opacity:1;stroke:#000000;stroke-width:0.45997247;stroke-miterlimit:4;stroke-dasharray:none;stroke-opacity:1"
           id="circle3398"
           cx="135.29344"
           cy="245.21036"
           r="29.002296" />
        <rect
           style="opacity:1;fill:none;fill-opacity:1;stroke:#000000;stroke-width:0.35433072;stroke-miterlimit:4;stroke-dasharray:none;stroke-opacity:1"
           id="rect3400"
           width="38.976379"
           height="17.716536"
           x="68.147766"
           y="212.39999"
           rx="3.5433071"
           ry="3.5433071" />
      </g>
      <path
         style="opacity:1;fill:none;fill-opacity:1;stroke:#000000;stroke-width:0.36553261;stroke-miterlimit:4;stroke-dasharray:none;stroke-opacity:1"
         d="m 38.224609,272.67969 c -1.962992,0 -3.542968,1.57997 -3.542968,3.54297 l 0,10.59375 c 0,0.35687 0.0668,0.69515 0.164062,1.01953 l -0.08398,0 0,92.98437 -27.5527346,0 c -1.9629937,0 -3.5429688,1.57998 -3.5429688,3.54297 l 0,74.39844 c 0,1.96299 1.5799751,3.54297 3.5429688,3.54297 l 162.6269516,0 c 1.96299,0 3.54297,-1.57998 3.54297,-3.54297 l 0,-74.39844 c 0,-1.96299 -1.57998,-3.54297 -3.54297,-3.54297 l -27.55274,0 0,-92.98437 -0.0859,0 c 0.0973,-0.32438 0.16601,-0.66266 0.16601,-1.01953 l 0,-10.59375 c 0,-1.963 -1.58193,-3.54297 -3.54492,-3.54297 l -5.2793,0 c -1.96299,0 -3.54297,1.57997 -3.54297,3.54297 l 0,10.59375 c 0,0.35696 0.0687,0.69508 0.16602,1.01953 l -83.279294,0 c 0.09727,-0.32438 0.164063,-0.66266 0.164063,-1.01953 l 0,-10.59375 c 0,-1.963 -1.579977,-3.54297 -3.542969,-3.54297 l -5.279297,0 z"
         id="path3402"
         inkscape:connector-curvature="0" />
      <rect
         style="opacity:1;fill:none;fill-opacity:1;stroke:#000000;stroke-width:0.35433072;stroke-miterlimit:4;stroke-dasharray:none;stroke-opacity:1"
         id="rect3404"
         width="70.866142"
         height="12.009834"
         x="53.08939"
         y="295.59515"
         rx="3.5433099"
         ry="3.5433099" />
      <circle
         style="opacity:1;fill:none;fill-opacity:1;stroke:#000000;stroke-width:0.35433072;stroke-miterlimit:4;stroke-dasharray:none;stroke-opacity:1"
         id="circle3406"
         cx="88.522461"
         cy="342.48462"
         r="16.226053" />
      <g
         transform="translate(284,180)"
         id="g3410">
        <circle
           style="opacity:1;fill:none;fill-opacity:1;stroke:#000000;stroke-width:0.45997247;stroke-miterlimit:4;stroke-dasharray:none;stroke-opacity:1"
           id="circle3412"
           cx="41.75013"
           cy="245.21036"
           r="29.002296" />
        <circle
           r="29.002296"
           cy="245.21036"
           cx="135.29344"
           id="circle3414"
           style="opacity:1;fill:none;fill-opacity:1;stroke:#000000;stroke-width:0.45997247;stroke-miterlimit:4;stroke-dasharray:none;stroke-opacity:1" />
        <rect
           ry="3.5433071"
           rx="3.5433071"
           y="212.39999"
           x="68.147766"
           height="17.716536"
           width="38.976379"
           id="rect3416"
           style="opacity:1;fill:none;fill-opacity:1;stroke:#000000;stroke-width:0.35433072;stroke-miterlimit:4;stroke-dasharray:none;stroke-opacity:1" />
      </g>
      <path
         inkscape:connector-curvature="0"
         id="path3418"
         d="m 322.22461,272.67969 c -1.96299,0 -3.54297,1.57997 -3.54297,3.54297 l 0,10.59375 c 0,0.35687 0.0668,0.69515 0.16406,1.01953 l -0.084,0 0,92.98437 -27.55273,0 c -1.963,0 -3.54297,1.57998 -3.54297,3.54297 l 0,74.39844 c 0,1.96299 1.57997,3.54297 3.54297,3.54297 l 162.62695,0 c 1.96299,0 3.54297,-1.57998 3.54297,-3.54297 l 0,-74.39844 c 0,-1.96299 -1.57998,-3.54297 -3.54297,-3.54297 l -27.55274,0 0,-92.98437 -0.0859,0 c 0.0973,-0.32438 0.16601,-0.66266 0.16601,-1.01953 l 0,-10.59375 c 0,-1.963 -1.58193,-3.54297 -3.54492,-3.54297 l -5.2793,0 c -1.96299,0 -3.54297,1.57997 -3.54297,3.54297 l 0,10.59375 c 0,0.35696 0.0687,0.69508 0.16602,1.01953 l -83.27929,0 c 0.0973,-0.32438 0.16406,-0.66266 0.16406,-1.01953 l 0,-10.59375 c 0,-1.963 -1.57998,-3.54297 -3.54297,-3.54297 l -5.2793,0 z"
         style="opacity:1;fill:none;fill-opacity:1;stroke:#000000;stroke-width:0.36553261;stroke-miterlimit:4;stroke-dasharray:none;stroke-opacity:1" />
      <rect
         ry="3.5433099"
         rx="3.5433099"
         y="295.59515"
         x="337.08939"
         height="12.009834"
         width="70.866142"
         id="rect3420"
         style="opacity:1;fill:none;fill-opacity:1;stroke:#000000;stroke-width:0.35433072;stroke-miterlimit:4;stroke-dasharray:none;stroke-opacity:1" />
      <circle
         r="16.226053"
         cy="342.48462"
         cx="372.52246"
         id="circle3422"
         style="opacity:1;fill:none;fill-opacity:1;stroke:#000000;stroke-width:0.35433072;stroke-miterlimit:4;stroke-dasharray:none;stroke-opacity:1" />
      <g
         transform="matrix(1,0,0,-1,142,554.98438)"
         id="g3426">
        <circle
           r="29.002296"
           cy="245.21036"
           cx="41.75013"
           id="circle3428"
           style="opacity:1;fill:none;fill-opacity:1;stroke:#000000;stroke-width:0.45997247;stroke-miterlimit:4;stroke-dasharray:none;stroke-opacity:1" />
        <circle
           style="opacity:1;fill:none;fill-opacity:1;stroke:#000000;stroke-width:0.45997247;stroke-miterlimit:4;stroke-dasharray:none;stroke-opacity:1"
           id="circle3430"
           cx="135.29344"
           cy="245.21036"
           r="29.002296" />
        <rect
           style="opacity:1;fill:none;fill-opacity:1;stroke:#000000;stroke-width:0.35433072;stroke-miterlimit:4;stroke-dasharray:none;stroke-opacity:1"
           id="rect3432"
           width="38.976379"
           height="17.716536"
           x="68.147766"
           y="212.39999"
           rx="3.5433071"
           ry="3.5433071" />
      </g>
      <path
         style="opacity:1;fill:none;fill-opacity:1;stroke:#000000;stroke-width:0.36553261;stroke-miterlimit:4;stroke-dasharray:none;stroke-opacity:1"
         d="m 180.22461,462.30469 c -1.96299,0 -3.54297,-1.57997 -3.54297,-3.54297 l 0,-10.59375 c 0,-0.35687 0.0668,-0.69515 0.16406,-1.01953 l -0.084,0 0,-92.98437 -27.55273,0 c -1.963,0 -3.54297,-1.57998 -3.54297,-3.54297 l 0,-74.39844 c 0,-1.96299 1.57997,-3.54297 3.54297,-3.54297 l 162.62695,0 c 1.96299,0 3.54297,1.57998 3.54297,3.54297 l 0,74.39844 c 0,1.96299 -1.57998,3.54297 -3.54297,3.54297 l -27.55274,0 0,92.98437 -0.0859,0 c 0.0973,0.32438 0.16601,0.66266 0.16601,1.01953 l 0,10.59375 c 0,1.963 -1.58193,3.54297 -3.54492,3.54297 l -5.2793,0 c -1.96299,0 -3.54297,-1.57997 -3.54297,-3.54297 l 0,-10.59375 c 0,-0.35696 0.0687,-0.69508 0.16602,-1.01953 l -83.27929,0 c 0.0973,0.32438 0.16406,0.66266 0.16406,1.01953 l 0,10.59375 c 0,1.963 -1.57998,3.54297 -3.54297,3.54297 l -5.2793,0 z"
         id="path3434"
         inkscape:connector-curvature="0" />
      <rect
         transform="scale(1,-1)"
         style="opacity:1;fill:none;fill-opacity:1;stroke:#000000;stroke-width:0.35433072;stroke-miterlimit:4;stroke-dasharray:none;stroke-opacity:1"
         id="rect3436"
         width="70.866142"
         height="12.009834"
         x="195.08939"
         y="-439.38922"
         rx="3.5433099"
         ry="3.5433099" />
      <circle
         transform="scale(1,-1)"
         style="opacity:1;fill:none;fill-opacity:1;stroke:#000000;stroke-width:0.35433072;stroke-miterlimit:4;stroke-dasharray:none;stroke-opacity:1"
         id="circle3438"
         cx="230.52246"
         cy="-392.49979"
         r="16.226053" />
      <g
         transform="translate(0,372)"
         id="g3442">
        <circle
           r="29.002296"
           cy="245.21036"
           cx="41.75013"
           id="circle3444"
           style="opacity:1;fill:none;fill-opacity:1;stroke:#000000;stroke-width:0.45997247;stroke-miterlimit:4;stroke-dasharray:none;stroke-opacity:1" />
        <circle
           style="opacity:1;fill:none;fill-opacity:1;stroke:#000000;stroke-width:0.45997247;stroke-miterlimit:4;stroke-dasharray:none;stroke-opacity:1"
           id="circle3446"
           cx="135.29344"
           cy="245.21036"
           r="29.002296" />
        <rect
           style="opacity:1;fill:none;fill-opacity:1;stroke:#000000;stroke-width:0.35433072;stroke-miterlimit:4;stroke-dasharray:none;stroke-opacity:1"
           id="rect3448"
           width="38.976379"
           height="17.716536"
           x="68.147766"
           y="212.39999"
           rx="3.5433071"
           ry="3.5433071" />
      </g>
      <path
         style="opacity:1;fill:none;fill-opacity:1;stroke:#000000;stroke-width:0.36553261;stroke-miterlimit:4;stroke-dasharray:none;stroke-opacity:1"
         d="m 38.224609,464.67969 c -1.962992,0 -3.542968,1.57997 -3.542968,3.54297 l 0,10.59375 c 0,0.35687 0.0668,0.69515 0.164062,1.01953 l -0.08398,0 0,92.98437 -27.5527346,0 c -1.9629937,0 -3.5429688,1.57998 -3.5429688,3.54297 l 0,74.39844 c 0,1.96299 1.5799751,3.54297 3.5429688,3.54297 l 162.6269516,0 c 1.96299,0 3.54297,-1.57998 3.54297,-3.54297 l 0,-74.39844 c 0,-1.96299 -1.57998,-3.54297 -3.54297,-3.54297 l -27.55274,0 0,-92.98437 -0.0859,0 c 0.0973,-0.32438 0.16601,-0.66266 0.16601,-1.01953 l 0,-10.59375 c 0,-1.963 -1.58193,-3.54297 -3.54492,-3.54297 l -5.2793,0 c -1.96299,0 -3.54297,1.57997 -3.54297,3.54297 l 0,10.59375 c 0,0.35696 0.0687,0.69508 0.16602,1.01953 l -83.279294,0 c 0.09727,-0.32438 0.164063,-0.66266 0.164063,-1.01953 l 0,-10.59375 c 0,-1.963 -1.579977,-3.54297 -3.542969,-3.54297 l -5.279297,0 z"
         id="path3450"
         inkscape:connector-curvature="0" />
      <rect
         style="opacity:1;fill:none;fill-opacity:1;stroke:#000000;stroke-width:0.35433072;stroke-miterlimit:4;stroke-dasharray:none;stroke-opacity:1"
         id="rect3452"
         width="70.866142"
         height="12.009834"
         x="53.08939"
         y="487.59515"
         rx="3.5433099"
         ry="3.5433099" />
      <circle
         style="opacity:1;fill:none;fill-opacity:1;stroke:#000000;stroke-width:0.35433072;stroke-miterlimit:4;stroke-dasharray:none;stroke-opacity:1"
         id="circle3454"
         cx="88.522461"
         cy="534.48462"
         r="16.226053" />
      <g
         transform="translate(284,372)"
         id="g3458">
        <circle
           style="opacity:1;fill:none;fill-opacity:1;stroke:#000000;stroke-width:0.45997247;stroke-miterlimit:4;stroke-dasharray:none;stroke-opacity:1"
           id="circle3460"
           cx="41.75013"
           cy="245.21036"
           r="29.002296" />
        <circle
           r="29.002296"
           cy="245.21036"
           cx="135.29344"
           id="circle3462"
           style="opacity:1;fill:none;fill-opacity:1;stroke:#000000;stroke-width:0.45997247;stroke-miterlimit:4;stroke-dasharray:none;stroke-opacity:1" />
        <rect
           ry="3.5433071"
           rx="3.5433071"
           y="212.39999"
           x="68.147766"
           height="17.716536"
           width="38.976379"
           id="rect3464"
           style="opacity:1;fill:none;fill-opacity:1;stroke:#000000;stroke-width:0.35433072;stroke-miterlimit:4;stroke-dasharray:none;stroke-opacity:1" />
      </g>
      <path
         inkscape:connector-curvature="0"
         id="path3466"
         d="m 322.22461,464.67969 c -1.96299,0 -3.54297,1.57997 -3.54297,3.54297 l 0,10.59375 c 0,0.35687 0.0668,0.69515 0.16406,1.01953 l -0.084,0 0,92.98437 -27.55273,0 c -1.963,0 -3.54297,1.57998 -3.54297,3.54297 l 0,74.39844 c 0,1.96299 1.57997,3.54297 3.54297,3.54297 l 162.62695,0 c 1.96299,0 3.54297,-1.57998 3.54297,-3.54297 l 0,-74.39844 c 0,-1.96299 -1.57998,-3.54297 -3.54297,-3.54297 l -27.55274,0 0,-92.98437 -0.0859,0 c 0.0973,-0.32438 0.16601,-0.66266 0.16601,-1.01953 l 0,-10.59375 c 0,-1.963 -1.58193,-3.54297 -3.54492,-3.54297 l -5.2793,0 c -1.96299,0 -3.54297,1.57997 -3.54297,3.54297 l 0,10.59375 c 0,0.35696 0.0687,0.69508 0.16602,1.01953 l -83.27929,0 c 0.0973,-0.32438 0.16406,-0.66266 0.16406,-1.01953 l 0,-10.59375 c 0,-1.963 -1.57998,-3.54297 -3.54297,-3.54297 l -5.2793,0 z"
         style="opacity:1;fill:none;fill-opacity:1;stroke:#000000;stroke-width:0.36553261;stroke-miterlimit:4;stroke-dasharray:none;stroke-opacity:1" />
      <rect
         ry="3.5433099"
         rx="3.5433099"
         y="487.59515"
         x="337.08939"
         height="12.009834"
         width="70.866142"
         id="rect3468"
         style="opacity:1;fill:none;fill-opacity:1;stroke:#000000;stroke-width:0.35433072;stroke-miterlimit:4;stroke-dasharray:none;stroke-opacity:1" />
      <circle
         r="16.226053"
         cy="534.48462"
         cx="372.52246"
         id="circle3470"
         style="opacity:1;fill:none;fill-opacity:1;stroke:#000000;stroke-width:0.35433072;stroke-miterlimit:4;stroke-dasharray:none;stroke-opacity:1" />
      <g
         transform="matrix(1,0,0,-1,142,746.98438)"
         id="g3474">
        <circle
           r="29.002296"
           cy="245.21036"
           cx="41.75013"
           id="circle3476"
           style="opacity:1;fill:none;fill-opacity:1;stroke:#000000;stroke-width:0.45997247;stroke-miterlimit:4;stroke-dasharray:none;stroke-opacity:1" />
        <circle
           style="opacity:1;fill:none;fill-opacity:1;stroke:#000000;stroke-width:0.45997247;stroke-miterlimit:4;stroke-dasharray:none;stroke-opacity:1"
           id="circle3478"
           cx="135.29344"
           cy="245.21036"
           r="29.002296" />
        <rect
           style="opacity:1;fill:none;fill-opacity:1;stroke:#000000;stroke-width:0.35433072;stroke-miterlimit:4;stroke-dasharray:none;stroke-opacity:1"
           id="rect3480"
           width="38.976379"
           height="17.716536"
           x="68.147766"
           y="212.39999"
           rx="3.5433071"
           ry="3.5433071" />
      </g>
      <path
         style="opacity:1;fill:none;fill-opacity:1;stroke:#000000;stroke-width:0.36553261;stroke-miterlimit:4;stroke-dasharray:none;stroke-opacity:1"
         d="m 180.22461,654.30469 c -1.96299,0 -3.54297,-1.57997 -3.54297,-3.54297 l 0,-10.59375 c 0,-0.35687 0.0668,-0.69515 0.16406,-1.01953 l -0.084,0 0,-92.98437 -27.55273,0 c -1.963,0 -3.54297,-1.57998 -3.54297,-3.54297 l 0,-74.39844 c 0,-1.96299 1.57997,-3.54297 3.54297,-3.54297 l 162.62695,0 c 1.96299,0 3.54297,1.57998 3.54297,3.54297 l 0,74.39844 c 0,1.96299 -1.57998,3.54297 -3.54297,3.54297 l -27.55274,0 0,92.98437 -0.0859,0 c 0.0973,0.32438 0.16601,0.66266 0.16601,1.01953 l 0,10.59375 c 0,1.963 -1.58193,3.54297 -3.54492,3.54297 l -5.2793,0 c -1.96299,0 -3.54297,-1.57997 -3.54297,-3.54297 l 0,-10.59375 c 0,-0.35696 0.0687,-0.69508 0.16602,-1.01953 l -83.27929,0 c 0.0973,0.32438 0.16406,0.66266 0.16406,1.01953 l 0,10.59375 c 0,1.963 -1.57998,3.54297 -3.54297,3.54297 l -5.2793,0 z"
         id="path3482"
         inkscape:connector-curvature="0" />
      <rect
         transform="scale(1,-1)"
         style="opacity:1;fill:none;fill-opacity:1;stroke:#000000;stroke-width:0.35433072;stroke-miterlimit:4;stroke-dasharray:none;stroke-opacity:1"
         id="rect3484"
         width="70.866142"
         height="12.009834"
         x="195.08939"
         y="-631.38922"
         rx="3.5433099"
         ry="3.5433099" />
      <circle
         transform="scale(1,-1)"
         style="opacity:1;fill:none;fill-opacity:1;stroke:#000000;stroke-width:0.35433072;stroke-miterlimit:4;stroke-dasharray:none;stroke-opacity:1"
         id="circle3486"
         cx="230.52246"
         cy="-584.49976"
         r="16.226053" />
      <g
         transform="translate(0,564)"
         id="g3490">
        <circle
           style="opacity:1;fill:none;fill-opacity:1;stroke:#000000;stroke-width:0.45997247;stroke-miterlimit:4;stroke-dasharray:none;stroke-opacity:1"
           id="circle3492"
           cx="41.75013"
           cy="245.21036"
           r="29.002296" />
        <circle
           r="29.002296"
           cy="245.21036"
           cx="135.29344"
           id="circle3494"
           style="opacity:1;fill:none;fill-opacity:1;stroke:#000000;stroke-width:0.45997247;stroke-miterlimit:4;stroke-dasharray:none;stroke-opacity:1" />
        <rect
           ry="3.5433071"
           rx="3.5433071"
           y="212.39999"
           x="68.147766"
           height="17.716536"
           width="38.976379"
           id="rect3496"
           style="opacity:1;fill:none;fill-opacity:1;stroke:#000000;stroke-width:0.35433072;stroke-miterlimit:4;stroke-dasharray:none;stroke-opacity:1" />
      </g>
      <path
         inkscape:connector-curvature="0"
         id="path3498"
         d="m 38.224609,656.67969 c -1.962992,0 -3.542968,1.57997 -3.542968,3.54297 l 0,10.59375 c 0,0.35687 0.0668,0.69515 0.164062,1.01953 l -0.08398,0 0,92.98437 -27.5527346,0 c -1.9629937,0 -3.5429688,1.57998 -3.5429688,3.54297 l 0,74.39844 c 0,1.96299 1.5799751,3.54297 3.5429688,3.54297 l 162.6269516,0 c 1.96299,0 3.54297,-1.57998 3.54297,-3.54297 l 0,-74.39844 c 0,-1.96299 -1.57998,-3.54297 -3.54297,-3.54297 l -27.55274,0 0,-92.98437 -0.0859,0 c 0.0973,-0.32438 0.16601,-0.66266 0.16601,-1.01953 l 0,-10.59375 c 0,-1.963 -1.58193,-3.54297 -3.54492,-3.54297 l -5.2793,0 c -1.96299,0 -3.54297,1.57997 -3.54297,3.54297 l 0,10.59375 c 0,0.35696 0.0687,0.69508 0.16602,1.01953 l -83.279294,0 c 0.09727,-0.32438 0.164063,-0.66266 0.164063,-1.01953 l 0,-10.59375 c 0,-1.963 -1.579977,-3.54297 -3.542969,-3.54297 l -5.279297,0 z"
         style="opacity:1;fill:none;fill-opacity:1;stroke:#000000;stroke-width:0.36553261;stroke-miterlimit:4;stroke-dasharray:none;stroke-opacity:1" />
      <rect
         ry="3.5433099"
         rx="3.5433099"
         y="679.59515"
         x="53.08939"
         height="12.009834"
         width="70.866142"
         id="rect3500"
         style="opacity:1;fill:none;fill-opacity:1;stroke:#000000;stroke-width:0.35433072;stroke-miterlimit:4;stroke-dasharray:none;stroke-opacity:1" />
      <circle
         r="16.226053"
         cy="726.48462"
         cx="88.522461"
         id="circle3502"
         style="opacity:1;fill:none;fill-opacity:1;stroke:#000000;stroke-width:0.35433072;stroke-miterlimit:4;stroke-dasharray:none;stroke-opacity:1" />
      <g
         transform="translate(284,564)"
         id="g3506">
        <circle
           r="29.002296"
           cy="245.21036"
           cx="41.75013"
           id="circle3508"
           style="opacity:1;fill:none;fill-opacity:1;stroke:#000000;stroke-width:0.45997247;stroke-miterlimit:4;stroke-dasharray:none;stroke-opacity:1" />
        <circle
           style="opacity:1;fill:none;fill-opacity:1;stroke:#000000;stroke-width:0.45997247;stroke-miterlimit:4;stroke-dasharray:none;stroke-opacity:1"
           id="circle3510"
           cx="135.29344"
           cy="245.21036"
           r="29.002296" />
        <rect
           style="opacity:1;fill:none;fill-opacity:1;stroke:#000000;stroke-width:0.35433072;stroke-miterlimit:4;stroke-dasharray:none;stroke-opacity:1"
           id="rect3512"
           width="38.976379"
           height="17.716536"
           x="68.147766"
           y="212.39999"
           rx="3.5433071"
           ry="3.5433071" />
      </g>
      <path
         style="opacity:1;fill:none;fill-opacity:1;stroke:#000000;stroke-width:0.36553261;stroke-miterlimit:4;stroke-dasharray:none;stroke-opacity:1"
         d="m 322.22461,656.67969 c -1.96299,0 -3.54297,1.57997 -3.54297,3.54297 l 0,10.59375 c 0,0.35687 0.0668,0.69515 0.16406,1.01953 l -0.084,0 0,92.98437 -27.55273,0 c -1.963,0 -3.54297,1.57998 -3.54297,3.54297 l 0,74.39844 c 0,1.96299 1.57997,3.54297 3.54297,3.54297 l 162.62695,0 c 1.96299,0 3.54297,-1.57998 3.54297,-3.54297 l 0,-74.39844 c 0,-1.96299 -1.57998,-3.54297 -3.54297,-3.54297 l -27.55274,0 0,-92.98437 -0.0859,0 c 0.0973,-0.32438 0.16601,-0.66266 0.16601,-1.01953 l 0,-10.59375 c 0,-1.963 -1.58193,-3.54297 -3.54492,-3.54297 l -5.2793,0 c -1.96299,0 -3.54297,1.57997 -3.54297,3.54297 l 0,10.59375 c 0,0.35696 0.0687,0.69508 0.16602,1.01953 l -83.27929,0 c 0.0973,-0.32438 0.16406,-0.66266 0.16406,-1.01953 l 0,-10.59375 c 0,-1.963 -1.57998,-3.54297 -3.54297,-3.54297 l -5.2793,0 z"
         id="path3514"
         inkscape:connector-curvature="0" />
      <rect
         style="opacity:1;fill:none;fill-opacity:1;stroke:#000000;stroke-width:0.35433072;stroke-miterlimit:4;stroke-dasharray:none;stroke-opacity:1"
         id="rect3516"
         width="70.866142"
         height="12.009834"
         x="337.08939"
         y="679.59515"
         rx="3.5433099"
         ry="3.5433099" />
      <circle
         style="opacity:1;fill:none;fill-opacity:1;stroke:#000000;stroke-width:0.35433072;stroke-miterlimit:4;stroke-dasharray:none;stroke-opacity:1"
         id="circle3518"
         cx="372.52246"
         cy="726.48462"
         r="16.226053" />
      <g
         transform="matrix(1,0,0,-1,142,938.98438)"
         id="g3522">
        <circle
           style="opacity:1;fill:none;fill-opacity:1;stroke:#000000;stroke-width:0.45997247;stroke-miterlimit:4;stroke-dasharray:none;stroke-opacity:1"
           id="circle3524"
           cx="41.75013"
           cy="245.21036"
           r="29.002296" />
        <circle
           r="29.002296"
           cy="245.21036"
           cx="135.29344"
           id="circle3526"
           style="opacity:1;fill:none;fill-opacity:1;stroke:#000000;stroke-width:0.45997247;stroke-miterlimit:4;stroke-dasharray:none;stroke-opacity:1" />
        <rect
           ry="3.5433071"
           rx="3.5433071"
           y="212.39999"
           x="68.147766"
           height="17.716536"
           width="38.976379"
           id="rect3528"
           style="opacity:1;fill:none;fill-opacity:1;stroke:#000000;stroke-width:0.35433072;stroke-miterlimit:4;stroke-dasharray:none;stroke-opacity:1" />
      </g>
      <path
         inkscape:connector-curvature="0"
         id="path3530"
         d="m 180.22461,846.30469 c -1.96299,0 -3.54297,-1.57997 -3.54297,-3.54297 l 0,-10.59375 c 0,-0.35687 0.0668,-0.69515 0.16406,-1.01953 l -0.084,0 0,-92.98437 -27.55273,0 c -1.963,0 -3.54297,-1.57998 -3.54297,-3.54297 l 0,-74.39844 c 0,-1.96299 1.57997,-3.54297 3.54297,-3.54297 l 162.62695,0 c 1.96299,0 3.54297,1.57998 3.54297,3.54297 l 0,74.39844 c 0,1.96299 -1.57998,3.54297 -3.54297,3.54297 l -27.55274,0 0,92.98437 -0.0859,0 c 0.0973,0.32438 0.16601,0.66266 0.16601,1.01953 l 0,10.59375 c 0,1.963 -1.58193,3.54297 -3.54492,3.54297 l -5.2793,0 c -1.96299,0 -3.54297,-1.57997 -3.54297,-3.54297 l 0,-10.59375 c 0,-0.35696 0.0687,-0.69508 0.16602,-1.01953 l -83.27929,0 c 0.0973,0.32438 0.16406,0.66266 0.16406,1.01953 l 0,10.59375 c 0,1.963 -1.57998,3.54297 -3.54297,3.54297 l -5.2793,0 z"
         style="opacity:1;fill:none;fill-opacity:1;stroke:#000000;stroke-width:0.36553261;stroke-miterlimit:4;stroke-dasharray:none;stroke-opacity:1" />
      <rect
         transform="scale(1,-1)"
         ry="3.5433099"
         rx="3.5433099"
         y="-823.38922"
         x="195.08939"
         height="12.009834"
         width="70.866142"
         id="rect3532"
         style="opacity:1;fill:none;fill-opacity:1;stroke:#000000;stroke-width:0.35433072;stroke-miterlimit:4;stroke-dasharray:none;stroke-opacity:1" />
      <circle
         transform="scale(1,-1)"
         r="16.226053"
         cy="-776.49976"
         cx="230.52246"
         id="circle3534"
         style="opacity:1;fill:none;fill-opacity:1;stroke:#000000;stroke-width:0.35433072;stroke-miterlimit:4;stroke-dasharray:none;stroke-opacity:1" />
      <g
         transform="translate(0,756)"
         id="g3538">
        <circle
           r="29.002296"
           cy="245.21036"
           cx="41.75013"
           id="circle3540"
           style="opacity:1;fill:none;fill-opacity:1;stroke:#000000;stroke-width:0.45997247;stroke-miterlimit:4;stroke-dasharray:none;stroke-opacity:1" />
        <circle
           style="opacity:1;fill:none;fill-opacity:1;stroke:#000000;stroke-width:0.45997247;stroke-miterlimit:4;stroke-dasharray:none;stroke-opacity:1"
           id="circle3542"
           cx="135.29344"
           cy="245.21036"
           r="29.002296" />
        <rect
           style="opacity:1;fill:none;fill-opacity:1;stroke:#000000;stroke-width:0.35433072;stroke-miterlimit:4;stroke-dasharray:none;stroke-opacity:1"
           id="rect3544"
           width="38.976379"
           height="17.716536"
           x="68.147766"
           y="212.39999"
           rx="3.5433071"
           ry="3.5433071" />
      </g>
      <path
         style="opacity:1;fill:none;fill-opacity:1;stroke:#000000;stroke-width:0.36553261;stroke-miterlimit:4;stroke-dasharray:none;stroke-opacity:1"
         d="m 38.224609,848.67969 c -1.962992,0 -3.542968,1.57997 -3.542968,3.54297 l 0,10.59375 c 0,0.35687 0.0668,0.69515 0.164062,1.01953 l -0.08398,0 0,92.98437 -27.5527346,0 c -1.9629937,0 -3.5429688,1.57998 -3.5429688,3.54297 l 0,74.39842 c 0,1.963 1.5799751,3.543 3.5429688,3.543 l 162.6269516,0 c 1.96299,0 3.54297,-1.58 3.54297,-3.543 l 0,-74.39842 c 0,-1.96299 -1.57998,-3.54297 -3.54297,-3.54297 l -27.55274,0 0,-92.98437 -0.0859,0 c 0.0973,-0.32438 0.16601,-0.66266 0.16601,-1.01953 l 0,-10.59375 c 0,-1.963 -1.58193,-3.54297 -3.54492,-3.54297 l -5.2793,0 c -1.96299,0 -3.54297,1.57997 -3.54297,3.54297 l 0,10.59375 c 0,0.35696 0.0687,0.69508 0.16602,1.01953 l -83.279294,0 c 0.09727,-0.32438 0.164063,-0.66266 0.164063,-1.01953 l 0,-10.59375 c 0,-1.963 -1.579977,-3.54297 -3.542969,-3.54297 l -5.279297,0 z"
         id="path3546"
         inkscape:connector-curvature="0" />
      <rect
         style="opacity:1;fill:none;fill-opacity:1;stroke:#000000;stroke-width:0.35433072;stroke-miterlimit:4;stroke-dasharray:none;stroke-opacity:1"
         id="rect3548"
         width="70.866142"
         height="12.009834"
         x="53.08939"
         y="871.59515"
         rx="3.5433099"
         ry="3.5433099" />
      <circle
         style="opacity:1;fill:none;fill-opacity:1;stroke:#000000;stroke-width:0.35433072;stroke-miterlimit:4;stroke-dasharray:none;stroke-opacity:1"
         id="circle3550"
         cx="88.522461"
         cy="918.48462"
         r="16.226053" />
      <g
         transform="translate(284,756)"
         id="g3554">
        <circle
           style="opacity:1;fill:none;fill-opacity:1;stroke:#000000;stroke-width:0.45997247;stroke-miterlimit:4;stroke-dasharray:none;stroke-opacity:1"
           id="circle3556"
           cx="41.75013"
           cy="245.21036"
           r="29.002296" />
        <circle
           r="29.002296"
           cy="245.21036"
           cx="135.29344"
           id="circle3558"
           style="opacity:1;fill:none;fill-opacity:1;stroke:#000000;stroke-width:0.45997247;stroke-miterlimit:4;stroke-dasharray:none;stroke-opacity:1" />
        <rect
           ry="3.5433071"
           rx="3.5433071"
           y="212.39999"
           x="68.147766"
           height="17.716536"
           width="38.976379"
           id="rect3560"
           style="opacity:1;fill:none;fill-opacity:1;stroke:#000000;stroke-width:0.35433072;stroke-miterlimit:4;stroke-dasharray:none;stroke-opacity:1" />
      </g>
      <path
         inkscape:connector-curvature="0"
         id="path3562"
         d="m 322.22461,848.67969 c -1.96299,0 -3.54297,1.57997 -3.54297,3.54297 l 0,10.59375 c 0,0.35687 0.0668,0.69515 0.16406,1.01953 l -0.084,0 0,92.98437 -27.55273,0 c -1.963,0 -3.54297,1.57998 -3.54297,3.54297 l 0,74.39842 c 0,1.963 1.57997,3.543 3.54297,3.543 l 162.62695,0 c 1.96299,0 3.54297,-1.58 3.54297,-3.543 l 0,-74.39842 c 0,-1.96299 -1.57998,-3.54297 -3.54297,-3.54297 l -27.55274,0 0,-92.98437 -0.0859,0 c 0.0973,-0.32438 0.16601,-0.66266 0.16601,-1.01953 l 0,-10.59375 c 0,-1.963 -1.58193,-3.54297 -3.54492,-3.54297 l -5.2793,0 c -1.96299,0 -3.54297,1.57997 -3.54297,3.54297 l 0,10.59375 c 0,0.35696 0.0687,0.69508 0.16602,1.01953 l -83.27929,0 c 0.0973,-0.32438 0.16406,-0.66266 0.16406,-1.01953 l 0,-10.59375 c 0,-1.963 -1.57998,-3.54297 -3.54297,-3.54297 l -5.2793,0 z"
         style="opacity:1;fill:none;fill-opacity:1;stroke:#000000;stroke-width:0.36553261;stroke-miterlimit:4;stroke-dasharray:none;stroke-opacity:1" />
      <rect
         ry="3.5433099"
         rx="3.5433099"
         y="871.59515"
         x="337.08939"
         height="12.009834"
         width="70.866142"
         id="rect3564"
         style="opacity:1;fill:none;fill-opacity:1;stroke:#000000;stroke-width:0.35433072;stroke-miterlimit:4;stroke-dasharray:none;stroke-opacity:1" />
      <circle
         r="16.226053"
         cy="918.48462"
         cx="372.52246"
         id="circle3566"
         style="opacity:1;fill:none;fill-opacity:1;stroke:#000000;stroke-width:0.35433072;stroke-miterlimit:4;stroke-dasharray:none;stroke-opacity:1" />
      <g
         transform="matrix(1,0,0,-1,142,1130.9844)"
         id="g3570">
        <circle
           r="29.002296"
           cy="245.21036"
           cx="41.75013"
           id="circle3572"
           style="opacity:1;fill:none;fill-opacity:1;stroke:#000000;stroke-width:0.45997247;stroke-miterlimit:4;stroke-dasharray:none;stroke-opacity:1" />
        <circle
           style="opacity:1;fill:none;fill-opacity:1;stroke:#000000;stroke-width:0.45997247;stroke-miterlimit:4;stroke-dasharray:none;stroke-opacity:1"
           id="circle3574"
           cx="135.29344"
           cy="245.21036"
           r="29.002296" />
        <rect
           style="opacity:1;fill:none;fill-opacity:1;stroke:#000000;stroke-width:0.35433072;stroke-miterlimit:4;stroke-dasharray:none;stroke-opacity:1"
           id="rect3576"
           width="38.976379"
           height="17.716536"
           x="68.147766"
           y="212.39999"
           rx="3.5433071"
           ry="3.5433071" />
      </g>
      <path
         style="opacity:1;fill:none;fill-opacity:1;stroke:#000000;stroke-width:0.36553261;stroke-miterlimit:4;stroke-dasharray:none;stroke-opacity:1"
         d="m 180.22461,1038.3047 c -1.96299,0 -3.54297,-1.58 -3.54297,-3.543 l 0,-10.5937 c 0,-0.3569 0.0668,-0.6952 0.16406,-1.0195 l -0.084,0 0,-92.98441 -27.55273,0 c -1.963,0 -3.54297,-1.57998 -3.54297,-3.54297 l 0,-74.39844 c 0,-1.96299 1.57997,-3.54297 3.54297,-3.54297 l 162.62695,0 c 1.96299,0 3.54297,1.57998 3.54297,3.54297 l 0,74.39844 c 0,1.96299 -1.57998,3.54297 -3.54297,3.54297 l -27.55274,0 0,92.98441 -0.0859,0 c 0.0973,0.3243 0.16601,0.6626 0.16601,1.0195 l 0,10.5937 c 0,1.963 -1.58193,3.543 -3.54492,3.543 l -5.2793,0 c -1.96299,0 -3.54297,-1.58 -3.54297,-3.543 l 0,-10.5937 c 0,-0.357 0.0687,-0.6951 0.16602,-1.0195 l -83.27929,0 c 0.0973,0.3243 0.16406,0.6626 0.16406,1.0195 l 0,10.5937 c 0,1.963 -1.57998,3.543 -3.54297,3.543 l -5.2793,0 z"
         id="path3578"
         inkscape:connector-curvature="0" />
      <rect
         transform="scale(1,-1)"
         style="opacity:1;fill:none;fill-opacity:1;stroke:#000000;stroke-width:0.35433072;stroke-miterlimit:4;stroke-dasharray:none;stroke-opacity:1"
         id="rect3580"
         width="70.866142"
         height="12.009834"
         x="195.08939"
         y="-1015.3892"
         rx="3.5433099"
         ry="3.5433099" />
      <circle
         transform="scale(1,-1)"
         style="opacity:1;fill:none;fill-opacity:1;stroke:#000000;stroke-width:0.35433072;stroke-miterlimit:4;stroke-dasharray:none;stroke-opacity:1"
         id="circle3582"
         cx="230.52246"
         cy="-968.49982"
         r="16.226053" />
    </g>
  </g>
</svg>
